<svg data-v-423bf9ae="" xmlns="http://www.w3.org/2000/svg" viewBox="0 0 283.1707422028403 60" class="font"><!----><!----><!----><g data-v-423bf9ae="" id="9b39d12c-6ca6-456a-8af2-5a1c61c2c998" fill="black" transform="matrix(6.097560881055492,0,0,6.097560881055492,-2.5609720006788166,-25.609755491089942)"><path d="M1.54 4.76C1.54 4.45 1.29 4.20 0.98 4.20C0.67 4.20 0.42 4.45 0.42 4.76L0.42 11.12C0.57 10.98 0.77 10.88 0.98 10.88C1.20 10.88 1.40 10.98 1.54 11.12ZM4.28 10.88C4.51 10.89 4.70 10.99 4.84 11.13L4.84 4.76C4.84 4.45 4.59 4.20 4.28 4.20L4.27 4.20C3.96 4.20 3.71 4.45 3.71 4.76L3.71 11.13C3.85 10.99 4.06 10.89 4.27 10.88ZM7.57 4.20C7.27 4.20 7.01 4.45 7.01 4.76L7.01 11.12C7.15 10.98 7.35 10.88 7.57 10.88C7.78 10.88 7.98 10.98 8.13 11.12L8.13 4.76C8.13 4.45 7.88 4.20 7.57 4.20ZM2.63 12.88C2.03 12.88 1.54 12.33 1.54 11.69L1.54 11.63C1.51 11.34 1.27 11.12 0.98 11.12C0.69 11.12 0.45 11.34 0.42 11.63L0.42 11.69C0.42 12.96 1.41 14 2.63 14C3.19 14 3.72 13.78 4.12 13.40C3.85 13.09 3.65 12.71 3.56 12.29C3.36 12.64 3.02 12.88 2.63 12.88ZM7.57 11.13C7.35 11.13 7.15 11.26 7.07 11.44C7.03 11.51 7.01 11.59 7.01 11.69C7.01 12.01 6.89 12.31 6.68 12.54C6.47 12.75 6.20 12.88 5.92 12.88C5.64 12.88 5.38 12.75 5.18 12.54C4.96 12.31 4.84 12.01 4.84 11.69C4.84 11.59 4.82 11.51 4.79 11.44C4.69 11.26 4.51 11.13 4.28 11.13C4.06 11.13 3.88 11.26 3.78 11.44C3.74 11.51 3.72 11.59 3.72 11.69C3.72 12.96 4.72 14 5.92 14L5.94 14C6.92 13.99 7.74 13.31 8.02 12.38C8.09 12.17 8.13 11.93 8.13 11.69C8.13 11.59 8.11 11.51 8.06 11.44C7.98 11.26 7.78 11.13 7.57 11.13ZM13.38 8.96C13.38 9.03 13.37 9.09 13.36 9.14C13.29 9.37 13.06 9.52 12.82 9.52C12.52 9.52 12.26 9.27 12.26 8.96C12.26 8.93 12.26 8.90 12.25 8.88C12.24 8.58 12.12 8.32 11.93 8.11C11.72 7.90 11.45 7.77 11.17 7.77C10.89 7.77 10.63 7.90 10.43 8.11C10.23 8.32 10.12 8.58 10.09 8.88L10.09 8.96C10.09 9.27 9.84 9.52 9.53 9.52C9.28 9.52 9.07 9.37 9.00 9.14C8.99 9.09 8.97 9.03 8.97 8.96L8.97 8.88C8.97 8.78 8.99 8.69 9.00 8.60C9.17 7.50 10.08 6.65 11.17 6.65C12.28 6.65 13.19 7.50 13.36 8.60C13.37 8.69 13.37 8.78 13.38 8.88ZM13.38 11.91C13.38 12.53 13.15 13.08 12.71 13.45C12.31 13.80 11.76 14 11.17 14C9.97 14 8.97 12.96 8.97 11.69L8.97 9.53C9.03 9.58 9.09 9.63 9.14 9.66C9.25 9.73 9.39 9.76 9.53 9.76C9.76 9.76 9.95 9.67 10.09 9.53C10.15 9.48 10.19 9.42 10.23 9.35C10.28 9.45 10.35 9.55 10.43 9.63C10.63 9.84 10.89 9.97 11.17 9.97C11.45 9.97 11.72 9.84 11.93 9.63C12.01 9.55 12.07 9.45 12.12 9.35C12.26 9.60 12.52 9.76 12.82 9.76C12.96 9.76 13.09 9.73 13.22 9.66C12.88 10.50 12.10 11.09 11.17 11.09C10.78 11.09 10.42 10.98 10.09 10.79L10.09 11.69C10.09 12.01 10.21 12.32 10.43 12.54C10.63 12.75 10.89 12.88 11.17 12.88C11.49 12.88 11.77 12.78 11.97 12.61C12.17 12.45 12.26 12.21 12.26 11.91C12.26 11.61 12.52 11.35 12.82 11.35C13.13 11.35 13.38 11.61 13.38 11.91ZM15.34 6.72C14.85 6.97 14.46 7.39 14.22 7.91L14.22 4.79C14.22 4.48 14.48 4.23 14.78 4.23C15.09 4.23 15.34 4.48 15.34 4.79ZM14.22 9.00C14.22 8.76 14.27 8.53 14.32 8.32C14.60 7.38 15.44 6.71 16.41 6.69L16.42 6.69C17.64 6.69 18.63 7.73 18.63 9.00C18.63 9.10 18.61 9.18 18.58 9.25C18.48 9.44 18.28 9.56 18.07 9.56C17.85 9.56 17.65 9.44 17.57 9.25C17.53 9.18 17.51 9.10 17.51 9.00C17.51 8.68 17.39 8.39 17.18 8.15C16.97 7.94 16.70 7.81 16.42 7.81C16.14 7.81 15.88 7.94 15.68 8.15C15.46 8.39 15.34 8.68 15.34 9.00C15.34 9.10 15.33 9.18 15.29 9.25C15.19 9.44 15.01 9.56 14.78 9.56C14.56 9.56 14.38 9.44 14.28 9.25C14.25 9.18 14.22 9.10 14.22 9.00ZM18.63 11.69C18.63 12.96 17.64 14 16.42 14C15.22 14 14.22 12.96 14.22 11.69L14.22 9.58C14.36 9.72 14.56 9.81 14.78 9.81C15.01 9.81 15.20 9.72 15.34 9.58L15.34 11.69C15.34 12.01 15.46 12.32 15.68 12.54C15.88 12.75 16.14 12.88 16.42 12.88C16.70 12.88 16.97 12.75 17.18 12.54C17.39 12.32 17.51 12.01 17.51 11.69L17.51 9.58C17.65 9.72 17.85 9.81 18.07 9.81C18.28 9.81 18.48 9.72 18.63 9.58ZM23.11 6.52C23.11 6.27 23.16 6.05 23.21 5.82C23.49 4.89 24.33 4.21 25.31 4.20L25.33 4.20C26.53 4.20 27.52 5.25 27.52 6.52C27.52 6.61 27.50 6.69 27.47 6.76C27.37 6.96 27.19 7.08 26.96 7.08C26.74 7.08 26.56 6.96 26.46 6.76C26.42 6.69 26.40 6.61 26.40 6.52C26.40 6.20 26.28 5.89 26.07 5.67C25.87 5.45 25.61 5.32 25.33 5.32C25.05 5.32 24.77 5.45 24.57 5.67C24.36 5.89 24.23 6.20 24.23 6.52C24.23 6.61 24.22 6.69 24.18 6.76C24.08 6.96 23.90 7.08 23.67 7.08C23.45 7.08 23.27 6.96 23.17 6.76C23.14 6.69 23.11 6.61 23.11 6.52ZM24.23 13.48C24.23 13.55 24.22 13.62 24.21 13.68C24.12 13.89 23.91 14.04 23.67 14.04C23.37 14.04 23.11 13.79 23.11 13.48L23.11 7.08C23.25 7.22 23.46 7.32 23.67 7.32C23.90 7.32 24.09 7.22 24.23 7.08ZM27.52 11.69C27.52 12.96 26.53 14 25.33 14C25.00 14 24.70 13.92 24.42 13.79C24.46 13.69 24.47 13.59 24.47 13.48L24.47 12.43C24.50 12.47 24.54 12.50 24.57 12.54C24.77 12.75 25.05 12.88 25.33 12.88C25.61 12.88 25.87 12.75 26.07 12.54C26.28 12.31 26.40 12.01 26.40 11.69L26.40 7.08C26.54 7.22 26.74 7.32 26.96 7.32C27.17 7.32 27.38 7.22 27.52 7.08ZM32.77 8.96C32.77 9.03 32.76 9.09 32.75 9.14C32.68 9.37 32.45 9.52 32.21 9.52C31.91 9.52 31.65 9.27 31.65 8.96C31.65 8.93 31.65 8.90 31.64 8.88C31.63 8.58 31.51 8.32 31.32 8.11C31.11 7.90 30.84 7.77 30.56 7.77C30.28 7.77 30.02 7.90 29.82 8.11C29.62 8.32 29.51 8.58 29.48 8.88L29.48 8.96C29.48 9.27 29.23 9.52 28.92 9.52C28.67 9.52 28.46 9.37 28.39 9.14C28.38 9.09 28.36 9.03 28.36 8.96L28.36 8.88C28.36 8.78 28.38 8.69 28.39 8.60C28.56 7.50 29.47 6.65 30.56 6.65C31.67 6.65 32.58 7.50 32.75 8.60C32.76 8.69 32.76 8.78 32.77 8.88ZM32.77 11.91C32.77 12.53 32.54 13.08 32.10 13.45C31.70 13.80 31.15 14 30.56 14C29.36 14 28.36 12.96 28.36 11.69L28.36 9.53C28.42 9.58 28.48 9.63 28.53 9.66C28.64 9.73 28.78 9.76 28.92 9.76C29.15 9.76 29.34 9.67 29.48 9.53C29.54 9.48 29.58 9.42 29.62 9.35C29.67 9.45 29.74 9.55 29.82 9.63C30.02 9.84 30.28 9.97 30.56 9.97C30.84 9.97 31.11 9.84 31.32 9.63C31.40 9.55 31.46 9.45 31.51 9.35C31.65 9.60 31.91 9.76 32.21 9.76C32.35 9.76 32.48 9.73 32.61 9.66C32.27 10.50 31.49 11.09 30.56 11.09C30.17 11.09 29.81 10.98 29.48 10.79L29.48 11.69C29.48 12.01 29.60 12.32 29.82 12.54C30.02 12.75 30.28 12.88 30.56 12.88C30.88 12.88 31.16 12.78 31.36 12.61C31.56 12.45 31.65 12.21 31.65 11.91C31.65 11.61 31.91 11.35 32.21 11.35C32.52 11.35 32.77 11.61 32.77 11.91ZM35.83 6.65C35.22 6.65 34.69 6.85 34.29 7.20C33.85 7.57 33.61 8.12 33.61 8.74C33.61 9.04 33.87 9.30 34.17 9.30C34.48 9.30 34.73 9.04 34.73 8.74C34.73 8.44 34.83 8.20 35.03 8.04C35.22 7.87 35.50 7.77 35.83 7.77C36.11 7.77 36.37 7.90 36.57 8.11C36.78 8.34 36.90 8.64 36.90 8.96L36.90 9.87C36.58 9.67 36.22 9.56 35.83 9.56C34.90 9.56 34.12 10.15 33.78 10.99C33.91 10.92 34.03 10.89 34.17 10.89C34.48 10.89 34.73 11.05 34.87 11.30C34.93 11.20 34.99 11.10 35.07 11.02C35.27 10.81 35.55 10.68 35.83 10.68C36.11 10.68 36.37 10.81 36.57 11.02C36.65 11.10 36.71 11.20 36.76 11.30C36.81 11.23 36.85 11.17 36.90 11.12C37.04 10.98 37.24 10.89 37.46 10.89C37.60 10.89 37.74 10.92 37.86 10.99C37.91 11.02 37.97 11.06 38.02 11.12L38.02 8.96C38.02 7.69 37.03 6.65 35.83 6.65ZM37.46 11.13C37.16 11.13 36.90 11.38 36.90 11.69C36.90 12.01 36.78 12.32 36.57 12.54C36.36 12.77 36.09 12.88 35.81 12.88C35.53 12.88 35.27 12.77 35.07 12.54C34.85 12.32 34.73 12.01 34.73 11.69C34.73 11.38 34.48 11.13 34.17 11.13C33.87 11.13 33.61 11.38 33.61 11.69C33.61 12.96 34.61 14 35.81 14C37.03 14 38.02 12.96 38.02 11.69C38.02 11.38 37.77 11.13 37.46 11.13ZM42.74 5.03C42.32 4.51 41.72 4.21 41.06 4.21C39.86 4.21 38.86 5.25 38.86 6.52C38.86 6.83 39.12 7.08 39.42 7.08C39.73 7.08 39.98 6.83 39.98 6.52C39.98 6.20 40.11 5.89 40.32 5.67C40.52 5.45 40.78 5.33 41.06 5.33C41.37 5.33 41.66 5.47 41.87 5.74C42.07 5.98 42.42 6.01 42.66 5.81C42.91 5.61 42.94 5.26 42.74 5.03ZM39.98 8.55L39.98 7.08C39.84 7.24 39.65 7.32 39.42 7.32C39.21 7.32 39.02 7.24 38.86 7.10L38.86 13.44C38.86 13.75 39.12 14 39.42 14C39.73 14 39.98 13.75 39.98 13.44L39.98 9.67L41.06 9.67C41.37 9.67 41.62 9.44 41.62 9.11C41.62 8.81 41.37 8.55 41.06 8.55ZM42.45 8.97C42.45 8.74 42.49 8.50 42.55 8.29C42.83 7.35 43.67 6.66 44.63 6.66L44.65 6.66C45.86 6.66 46.86 7.70 46.86 8.97C46.86 9.07 46.83 9.16 46.80 9.23C46.70 9.41 46.51 9.53 46.30 9.53C46.07 9.53 45.88 9.41 45.79 9.23C45.75 9.16 45.74 9.07 45.74 8.97C45.74 8.65 45.61 8.34 45.40 8.12C45.19 7.91 44.93 7.78 44.65 7.78C44.37 7.78 44.10 7.91 43.90 8.12C43.68 8.34 43.57 8.65 43.57 8.97C43.57 9.07 43.55 9.16 43.51 9.23C43.41 9.41 43.23 9.53 43.01 9.53C42.78 9.53 42.60 9.41 42.50 9.23C42.48 9.16 42.45 9.07 42.45 8.97ZM45.50 11.69C45.50 11.70 45.49 11.72 45.49 11.73L43.09 9.77C43.50 9.73 43.81 9.38 43.81 8.97L43.81 8.90L46.23 10.89C45.82 10.92 45.50 11.27 45.50 11.69ZM46.86 11.69C46.86 11.93 46.82 12.17 46.75 12.38C46.47 13.31 45.64 14 44.66 14L44.65 14C43.44 14 42.45 12.96 42.45 11.69C42.45 11.59 42.48 11.51 42.50 11.44C42.60 11.26 42.78 11.13 43.01 11.13C43.23 11.13 43.41 11.26 43.51 11.44C43.55 11.51 43.57 11.59 43.57 11.69C43.57 12.01 43.68 12.32 43.90 12.54C44.10 12.75 44.37 12.88 44.65 12.88C44.93 12.88 45.19 12.75 45.40 12.54C45.61 12.32 45.74 12.01 45.74 11.69C45.74 11.59 45.75 11.51 45.79 11.44C45.88 11.26 46.07 11.13 46.30 11.13C46.51 11.13 46.70 11.26 46.80 11.44C46.83 11.51 46.86 11.59 46.86 11.69Z"></path></g><!----><!----></svg>